<?xml version="1.0" encoding="UTF-8" standalone="no"?>
<!-- Created with Inkscape (http://www.inkscape.org/) -->

<svg
   version="1.1"
   id="svg1"
   width="174"
   height="192.66209"
   viewBox="0 0 174 192.66209"
   xmlns:xlink="http://www.w3.org/1999/xlink"
   xmlns="http://www.w3.org/2000/svg"
   xmlns:svg="http://www.w3.org/2000/svg">
  <defs
     id="defs1">
    <linearGradient
       id="linearGradient64">
      <stop
         style="stop-color:#2fff15;stop-opacity:1;"
         offset="0"
         id="stop64" />
      <stop
         style="stop-color:#1d9cff;stop-opacity:1;"
         offset="0.40217632"
         id="stop66" />
      <stop
         style="stop-color:#d800dc;stop-opacity:1;"
         offset="1"
         id="stop65" />
    </linearGradient>
    <linearGradient
       xlink:href="#linearGradient64"
       id="linearGradient65"
       x1="36.846405"
       y1="30.616684"
       x2="163.15359"
       y2="165.04539"
       gradientUnits="userSpaceOnUse"
       gradientTransform="translate(-11.499999,-10.49999)" />
  </defs>
  <path
     id="path62"
     style="opacity:1;fill:url(#linearGradient65);fill-rule:evenodd"
     d="M 87,9.7822209e-6 C 38.951227,9.7822209e-6 2.2918701e-7,38.951237 2.2918701e-7,87.00001 8.9229187e-5,114.57707 13.074617,140.52105 35.240234,156.92774 c 0.527849,-1.77572 1.405485,-4.24417 2.673828,-6.92773 0.753317,-1.59234 1.636722,-3.26051 2.710938,-4.93164 4.779899,-7.43456 12.95279,-14.76485 26.503906,-14.11719 3.288984,-7.18384 7.878621,-6.03748 8.97461,-5.63867 0.156569,0.057 0.242187,0.0996 0.242187,0.0996 l 8.6875,-9.29883 23.380857,22.97266 c 0,0 14.35602,8.65211 29.86719,5.51022 9.25516,-1.8747 21.77003,-8.25281 28.04883,-21.87741 C 171.38591,111.48953 174.00018,99.3149 174,87 174,38.951227 135.04877,-2.1777911e-7 87,-2.1777911e-7 Z M 133.84375,77.392588 c 8.96235,0 16.22656,7.266175 16.22656,16.228512 0,8.96235 -7.26421,16.22852 -16.22656,16.22852 -8.96234,0 -16.22852,-7.26617 -16.22852,-16.22852 0,-8.962337 7.26618,-16.228512 16.22852,-16.228512 z m -48.310547,45.535152 -5.460937,5.66797 17.003904,17.00391 5.80664,-5.94531 z m -9.609375,7.11915 c -4.838757,0 -4.353513,3.93945 -4.353516,3.93945 l 20.044918,19.63281 c 4.90788,0.48388 3.94141,-4.2168 3.94141,-4.2168 z m -9.945312,6.02148 c -0.429744,-0.013 -0.888718,-0.009 -1.375,0.0195 -2.334156,0.13462 -5.313207,0.80332 -8.869141,2.59961 -4.09064,1.75344 -7.055182,4.60792 -9.375,8.0332 -0.664933,0.98185 -1.27324,2.01308 -1.84375,3.07618 -0.199959,0.37257 -0.374202,0.766 -0.564453,1.14648 -0.345313,0.69064 -0.693852,1.37815 -1.011719,2.08984 -0.445369,0.99701 -0.815389,2.03545 -1.220703,3.0586 -2.22331,5.6129 -4.020965,11.4558 -6.611328,16.12695 -5.962761,10.75252 -18.767577,12.31617 -18.769531,12.31641 7.918368,6.74527 40.6675,14.46852 58.068359,-0.39063 4.141736,-3.53677 7.081905,-6.98425 9.242188,-10.21094 l 0.04102,0.004 c 0.627062,-0.93545 1.080022,-1.8136 1.574219,-2.70508 0.245631,-0.44294 0.565627,-0.90925 0.78125,-1.33984 0.685433,-1.36891 1.236773,-2.67722 1.658203,-3.90039 2.12876,-6.17849 1.26954,-10.29492 1.26954,-10.29492 L 70.59375,137.12306 c 0,0 -1.607026,-0.96382 -4.615234,-1.05469 z" />
</svg>
