<?xml version="1.0" encoding="UTF-8" standalone="no"?>
<svg
   width="380"
   height="380"
   viewBox="0 0 380 380"
   fill="none"
   version="1.1"
   id="svg10"
   sodipodi:docname="61685a97bd37904e.svg"
   inkscape:version="1.4.2 (ebf0e940d0, 2025-05-08)"
   inkscape:export-filename="61685a97bd37904e.png"
   inkscape:export-xdpi="252.63158"
   inkscape:export-ydpi="252.63158"
   xmlns:inkscape="http://www.inkscape.org/namespaces/inkscape"
   xmlns:sodipodi="http://sodipodi.sourceforge.net/DTD/sodipodi-0.dtd"
   xmlns="http://www.w3.org/2000/svg"
   xmlns:svg="http://www.w3.org/2000/svg">
  <defs
     id="defs10" />
  <sodipodi:namedview
     id="namedview10"
     pagecolor="#ffffff"
     bordercolor="#000000"
     borderopacity="0.25"
     inkscape:showpageshadow="2"
     inkscape:pageopacity="0.0"
     inkscape:pagecheckerboard="0"
     inkscape:deskcolor="#d1d1d1"
     showgrid="false"
     inkscape:zoom="0.63693245"
     inkscape:cx="-115.39685"
     inkscape:cy="76.146222"
     inkscape:window-width="1352"
     inkscape:window-height="722"
     inkscape:window-x="0"
     inkscape:window-y="0"
     inkscape:window-maximized="1"
     inkscape:current-layer="g36" />
  <g
     id="g10"
     inkscape:label="Logo"
     transform="translate(0.30424657,-57.260115)">
    <g
       id="g17"
       inkscape:label="left-ear">
      <circle
         cx="71"
         cy="139"
         r="32"
         fill="#bbe9aa"
         stroke="#6d8a6f"
         stroke-width="2"
         id="circle1"
         inkscape:label="outer" />
      <circle
         cx="71"
         cy="139"
         r="18"
         fill="#0a1e0e"
         id="circle2"
         inkscape:label="inner" />
    </g>
    <g
       id="g16"
       inkscape:label="right-ear">
      <circle
         cx="300.53564"
         cy="142.66089"
         r="32"
         fill="#bbe9aa"
         stroke="#6d8a6f"
         stroke-width="2"
         id="circle3"
         inkscape:label="outer" />
      <circle
         cx="300.53564"
         cy="142.66089"
         r="18"
         fill="#0a1e0e"
         id="circle4"
         inkscape:label="inner" />
    </g>
    <path
       d="m 190,91 c 87.813,0 159,71.187 159,159 v 6.921 c 0,17.717 3.94243,82.59923 -82.59923,82.59923 H 107.74191 C 18.271841,339.52023 31.0002,274.638 31,256.921 V 250 C 31,162.187 102.187,91 190,91 Z"
       fill="#bbe9aa"
       stroke="#6d8a6f"
       stroke-width="2"
       id="path4"
       sodipodi:nodetypes="ssssscss"
       inkscape:label="body" />
    <g
       id="g13"
       inkscape:label="mouth">
      <g
         id="g11"
         inkscape:label="teeth">
        <rect
           x="203.06651"
           y="252.80045"
           width="19.615854"
           height="46.364746"
           rx="8.0246677"
           fill="#d9d9d9"
           stroke="#6d8a6f"
           id="rect8"
           style="stroke-width:1.78326" />
        <rect
           x="183.45067"
           y="254.58371"
           width="19.615854"
           height="46.364746"
           rx="8.0246677"
           fill="#d9d9d9"
           stroke="#6d8a6f"
           id="rect9"
           style="stroke-width:1.78326" />
      </g>
      <g
         id="g12"
         inkscape:label="nose">
        <path
           d="m 199.5,231.40133 c 14.93658,0 28.41802,2.38422 38.13322,6.20574 4.85938,1.91344 8.73262,4.16748 11.37541,6.62481 2.64101,2.45733 3.98915,5.05198 3.98915,7.67693 0,2.62496 -1.34814,5.2196 -3.98915,7.67694 -2.64279,2.45733 -6.51603,4.71137 -11.37541,6.6248 -9.7152,3.82153 -23.19664,6.20575 -38.13322,6.20575 -14.93658,0 -28.41802,-2.38422 -38.13322,-6.20575 -4.85938,-1.91343 -8.73262,-4.16747 -11.37541,-6.6248 -2.64101,-2.45734 -3.98915,-5.05198 -3.98915,-7.67694 0,-2.62495 1.34814,-5.2196 3.98915,-7.67693 2.64279,-2.45733 6.51603,-4.71137 11.37541,-6.62481 9.7152,-3.82152 23.19664,-6.20574 38.13322,-6.20574 z"
           fill="#d9d9d9"
           stroke="#6d8a6f"
           id="path9"
           style="stroke-width:1.78326" />
        <ellipse
           fill="#0a1e0e"
           id="ellipse9"
           style="stroke-width:1.87478"
           ry="14.998253"
           rx="44.057369"
           cy="240.15817"
           cx="201.28326" />
      </g>
    </g>
    <g
       id="g15"
       inkscape:label="left-eye">
      <circle
         cx="130.5"
         cy="182.5"
         r="49.5"
         fill="#d9d9d9"
         stroke="#6d8a6f"
         stroke-width="2"
         id="circle5"
         inkscape:label="eye" />
      <circle
         cx="140.10001"
         cy="182.10001"
         r="10.1"
         fill="#09160b"
         id="circle6"
         inkscape:label="eyeball" />
    </g>
    <g
       id="g14"
       inkscape:label="right-eye">
      <circle
         cx="256.5"
         cy="181.5"
         r="49.5"
         transform="rotate(180,256.5,181.5)"
         fill="#d9d9d9"
         stroke="#6d8a6f"
         stroke-width="2"
         id="circle13"
         inkscape:label="eye" />
      <circle
         cx="278.89999"
         cy="181.89999"
         r="10.1"
         transform="rotate(180,278.9,181.9)"
         fill="#09160b"
         id="circle14"
         inkscape:label="eyeball" />
    </g>
  </g>
  <g
     id="g36"
     style="fill:#bbe9aa;fill-opacity:1;stroke:#6d8a6f;stroke-opacity:1;stroke-width:1.37952756;stroke-dasharray:none"
     inkscape:label="box">
    <path
       id="rect17"
       style="fill:#00c290;fill-opacity:1;stroke:#6d8a6f;stroke-opacity:1;stroke-width:1.37952756;stroke-dasharray:none;display:inline;stroke-linejoin:round;stroke-miterlimit:300;paint-order:markers fill stroke"
       d="M 305.69727 287.62695 C 302.06085 288.86112 299.45898 292.29537 299.45898 296.35938 L 299.45898 334.375 C 299.45898 339.48342 303.57127 343.59766 308.67969 343.59766 L 324.54883 343.59766 C 338.3545 341.79399 348.94727 330.04557 348.94727 315.73242 C 348.94727 300.16223 336.41199 287.62695 320.8418 287.62695 L 305.69727 287.62695 z "
       inkscape:label="cyan" />
    <path
       id="rect33"
       style="fill:#ff7be1;fill-opacity:1;stroke:#6d8a6f;stroke-opacity:1;stroke-width:1.37952756;stroke-dasharray:none;stroke-linejoin:round;stroke-miterlimit:300"
       d="m 255.941,287.1377 h 31.53589 c 5.10842,0 9.22097,4.11255 9.22097,9.22096 v 38.01712 c 0,5.10842 -4.11255,9.22097 -9.22097,9.22097 H 255.941 c -5.10842,0 -9.22097,-4.11255 -9.22097,-9.22097 v -38.01712 c 0,-5.10841 4.11255,-9.22096 9.22097,-9.22096 z"
       inkscape:label="magenta" />
    <path
       id="rect32"
       style="fill:#44b3ff;fill-opacity:1;stroke:#6d8a6f;stroke-opacity:1;stroke-width:1.37952756;stroke-dasharray:none;stroke-linejoin:round;stroke-miterlimit:300"
       d="m 203.20302,287.1377 h 31.53589 c 5.10842,0 9.22097,4.11255 9.22097,9.22096 v 38.01712 c 0,5.10842 -4.11255,9.22097 -9.22097,9.22097 h -31.53589 c -5.10841,0 -9.22096,-4.11255 -9.22096,-9.22097 v -38.01712 c 0,-5.10841 4.11255,-9.22096 9.22096,-9.22096 z"
       inkscape:label="blue" />
    <path
       id="rect31"
       style="fill:#90b900;fill-opacity:1;stroke:#6d8a6f;stroke-opacity:1;stroke-width:1.37952756;stroke-dasharray:none;stroke-linejoin:round;stroke-miterlimit:300"
       d="m 150.46505,287.1377 h 31.53589 c 5.10841,0 9.22096,4.11255 9.22096,9.22096 v 38.01712 c 0,5.10842 -4.11255,9.22097 -9.22096,9.22097 h -31.53589 c -5.10842,0 -9.22097,-4.11255 -9.22097,-9.22097 v -38.01712 c 0,-5.10841 4.11255,-9.22096 9.22097,-9.22096 z"
       inkscape:label="yellow" />
    <path
       id="rect36"
       style="fill:#3cc437;fill-opacity:1;stroke:#6d8a6f;stroke-opacity:1;stroke-width:1.37952756;stroke-dasharray:none;stroke-linejoin:round;stroke-miterlimit:300"
       d="m 97.727078,287.86688 h 31.535892 c 5.10841,0 9.22097,4.11255 9.22097,9.22097 v 38.01712 c 0,5.10841 -4.11256,9.22097 -9.22097,9.22097 H 97.727078 c -5.108415,0 -9.220967,-4.11256 -9.220967,-9.22097 v -38.01712 c 0,-5.10842 4.112552,-9.22097 9.220967,-9.22097 z"
       inkscape:label="green" />
    <path
       id="rect35"
       style="fill:#f69400;fill-opacity:1;stroke:#6d8a6f;stroke-opacity:1;stroke-width:1.37952756;stroke-dasharray:none;stroke-linejoin:round;stroke-miterlimit:300"
       d="M 60.65625 287.86719 C 46.850573 289.67085 36.257812 301.41928 36.257812 315.73242 C 36.257812 331.30262 48.791134 343.83594 64.361328 343.83594 L 79.505859 343.83594 C 83.142259 342.60176 85.746094 339.16946 85.746094 335.10547 L 85.746094 297.08789 C 85.746094 291.97947 81.633807 287.86719 76.525391 287.86719 L 60.65625 287.86719 z "
       inkscape:label="red" />
  </g>
</svg>
